<svg width="52" height="52" viewBox="0 0 52 52" fill="none" xmlns="http://www.w3.org/2000/svg">
<circle cx="26" cy="26" r="26" fill="white"/>
<path d="M36.9263 13.494L33.569 36.0356C33.523 36.3446 33.4502 36.649 33.3514 36.9454L32.7419 38.7738C32.5895 39.2308 32.2309 39.5894 31.774 39.7417C31.2901 39.903 30.7578 39.8127 30.3542 39.5008L20.9686 32.2483C20.3884 31.8 20.1552 31.0339 20.387 30.3383C20.4615 30.115 20.5809 29.9092 20.7379 29.7337L28.9999 20.4997L29.4676 19.8761C29.6911 19.5781 29.279 19.2206 29.0156 19.484C29.0051 19.4945 28.9939 19.5041 28.982 19.513L18.1917 27.5058C16.482 28.7723 14.3068 29.2346 12.2297 28.773L11.731 28.6622C11.2471 28.5547 10.7851 28.3655 10.3648 28.1028L7.68771 26.4296C7.29771 26.1859 7.15695 25.6856 7.36262 25.2742C7.45157 25.0963 7.59741 24.9533 7.77697 24.8678L17.9999 19.9997L28.4999 15.5L36.5375 12.1904C36.7579 12.0996 36.9999 12.2617 36.9999 12.5C36.9999 12.8327 36.9753 13.1649 36.9263 13.494Z" fill="#00A69C"/>
<path d="M36.9999 12.5V12.5C36.9999 12.2617 36.7579 12.0996 36.5375 12.1904L28.4999 15.5M36.9999 12.5V12.5C36.9999 12.8327 36.9753 13.1649 36.9263 13.494L33.569 36.0356C33.523 36.3446 33.4502 36.649 33.3514 36.9454L32.7419 38.7738C32.5895 39.2308 32.2309 39.5894 31.774 39.7417V39.7417C31.2901 39.903 30.7578 39.8127 30.3542 39.5008L20.9686 32.2483C20.3884 31.8 20.1552 31.0339 20.387 30.3383V30.3383C20.4615 30.115 20.5809 29.9092 20.7379 29.7338L28.9999 20.4997L29.4676 19.8761C29.6911 19.5781 29.279 19.2206 29.0156 19.484V19.484C29.0051 19.4945 28.9939 19.5041 28.982 19.513L18.1917 27.5058C16.482 28.7723 14.3068 29.2346 12.2297 28.773L11.731 28.6622C11.2471 28.5547 10.7851 28.3655 10.3648 28.1028L7.68771 26.4296C7.29771 26.1859 7.15695 25.6856 7.36262 25.2742V25.2742C7.45157 25.0963 7.59741 24.9533 7.77697 24.8678L17.9999 19.9997L28.4999 15.5M36.9999 12.5V12.5C36.334 12.8327 35.6455 13.1179 34.9393 13.3533L28.4999 15.5" stroke="#00A69C"/>
</svg>
