<svg width="52" height="52" viewBox="0 0 52 52" fill="none" xmlns="http://www.w3.org/2000/svg">
<path d="M36.8334 4.33337H15.1667C9.18359 4.33337 4.33334 9.18362 4.33334 15.1667V36.8334C4.33334 42.8165 9.18359 47.6667 15.1667 47.6667H36.8334C42.8164 47.6667 47.6667 42.8165 47.6667 36.8334V15.1667C47.6667 9.18362 42.8164 4.33337 36.8334 4.33337Z" stroke="#F4E3D7" stroke-width="2" stroke-linecap="round" stroke-linejoin="round"/>
<path d="M34.6667 24.6352C34.9341 26.4384 34.6261 28.28 33.7865 29.898C32.9469 31.5161 31.6185 32.8282 29.9902 33.6478C28.3619 34.4674 26.5167 34.7526 24.7169 34.463C22.9171 34.1734 21.2545 33.3237 19.9655 32.0347C18.6765 30.7457 17.8268 29.0831 17.5372 27.2833C17.2476 25.4835 17.5328 23.6383 18.3524 22.01C19.172 20.3817 20.4841 19.0533 22.1022 18.2137C23.7202 17.3741 25.5618 17.0661 27.365 17.3335C29.2044 17.6062 30.9072 18.4633 32.222 19.7782C33.5369 21.093 34.3939 22.7958 34.6667 24.6352Z" stroke="#F4E3D7" stroke-width="2" stroke-linecap="round" stroke-linejoin="round"/>
<path d="M37.9167 14.0834H37.9411" stroke="#F4E3D7" stroke-width="2" stroke-linecap="round" stroke-linejoin="round"/>
</svg>
