<svg width="52" height="53" viewBox="0 0 52 53" fill="none" xmlns="http://www.w3.org/2000/svg">
<path d="M44.403 8.05964C42.0083 5.65359 39.1565 3.74607 36.0138 2.44822C32.8711 1.15037 29.5003 0.488156 26.0979 0.50016C11.841 0.50016 0.221999 12.0636 0.20894 26.2596C0.20894 30.8063 1.40382 35.2296 3.65972 39.1458L0 52.5L13.7248 48.9185C17.5216 50.9755 21.7753 52.0537 26.0979 52.0548H26.111C40.3712 52.0548 51.9869 40.4913 52 26.2823C52.0033 22.896 51.3334 19.5425 50.029 16.415C48.7246 13.2875 46.8115 10.4478 44.3998 8.05964H44.403ZM26.0979 47.6933C22.2423 47.6946 18.4576 46.6617 15.1416 44.7033L14.3581 44.2353L6.21597 46.3608L8.39025 38.4535L7.88096 37.6378C5.72564 34.2264 4.58574 30.2767 4.59342 26.2466C4.59342 14.4621 14.2471 4.84865 26.111 4.84865C28.9374 4.8436 31.7368 5.39554 34.3479 6.47264C36.959 7.54974 39.33 9.1307 41.3244 11.1244C43.3258 13.1103 44.9124 15.471 45.9927 18.0704C47.073 20.6697 47.6257 23.4563 47.6188 26.2693C47.6057 38.096 37.952 47.6933 26.0979 47.6933ZM37.8998 31.6578C37.2566 31.3361 34.0801 29.7793 33.4827 29.5583C32.8885 29.3471 32.4543 29.2366 32.0299 29.8801C31.5957 30.5203 30.3551 31.9796 29.9829 32.3988C29.6107 32.8311 29.2255 32.8798 28.5791 32.5613C27.936 32.2363 25.8498 31.5603 23.3817 29.3601C21.4555 27.6538 20.166 25.5413 19.7808 24.9011C19.4086 24.2576 19.7448 23.9131 20.0681 23.5913C20.3521 23.3053 20.7112 22.8373 21.0344 22.4668C21.3609 22.0963 21.4686 21.8233 21.6808 21.3943C21.893 20.9588 21.7918 20.5883 21.6318 20.2666C21.4686 19.9448 20.1791 16.7696 19.6338 15.4891C19.1115 14.2249 18.5794 14.4004 18.1811 14.3841C17.8089 14.3614 17.3747 14.3614 16.9405 14.3614C16.6126 14.3695 16.2899 14.445 15.9927 14.5831C15.6955 14.7213 15.4302 14.9191 15.2135 15.1641C14.6193 15.8076 12.9576 17.3644 12.9576 20.5396C12.9576 23.7148 15.2755 26.7666 15.602 27.1988C15.9219 27.6311 20.1529 34.1278 26.6464 36.9228C28.1808 37.589 29.3887 37.9823 30.3322 38.2813C31.883 38.7753 33.2835 38.7005 34.4 38.5413C35.6406 38.3528 38.223 36.9813 38.7682 35.4766C39.3036 33.9686 39.3036 32.6816 39.1404 32.4118C38.9804 32.1388 38.5462 31.9796 37.8998 31.6578Z" fill="#F4E3D7"/>
</svg>
